<svg version="1.1" xmlns="http://www.w3.org/2000/svg" xmlns:xlink="http://www.w3.org/1999/xlink" width="70.30564" height="70.5684" viewBox="0,0,70.30564,70.5684"><g transform="translate(-204.84718,-144.7158)"><g data-paper-data="{&quot;isPaintingLayer&quot;:true}" fill-rule="nonzero" stroke="#949494" stroke-width="2" stroke-linejoin="miter" stroke-miterlimit="10" stroke-dasharray="" stroke-dashoffset="0" style="mix-blend-mode: normal"><path d="M272.3557,180.00001c0,16.1225 -14.48614,29.19235 -32.3557,29.19235c-17.86956,0 -32.3557,-13.06986 -32.3557,-29.19235c0,-16.1225 14.48614,-29.19235 32.3557,-29.19235c17.86956,0 32.3557,13.06986 32.3557,29.19235z" fill="#757575" stroke-linecap="butt"/><path d="M274.15282,180.00001c0,18.93464 -15.29074,34.2842 -34.15282,34.2842c-18.86208,0 -34.15282,-15.34956 -34.15282,-34.2842c0,-18.93464 15.29074,-34.2842 34.15282,-34.2842c18.86208,0 34.15282,15.34956 34.15282,34.2842z" fill="#757575" stroke-linecap="butt"/><path d="M225.3838,159.95344l11.68128,28.75391" fill="none" stroke-linecap="round"/><path d="M225.3838,159.95344l11.68128,28.75391" fill="none" stroke-linecap="round"/><path d="M225.3838,159.95344l11.68128,28.75391" fill="none" stroke-linecap="round"/><path d="M247.54762,189.38095c0,1.98505 -6.58172,1.57345 -11.79246,1.57345c-5.21074,0 -6.05273,-7.86207 -0.84199,-7.86207c2.89865,0 9.41762,1.03914 12.19182,2.89484c1.47557,0.98703 0.44263,3.29189 0.44263,3.39378z" fill="#757575" stroke-linecap="butt"/><path d="M249.98409,182.47357c1.41387,0.60555 3.98323,1.62132 3.52128,5.44844c-0.59955,4.96698 0.00664,3.55627 -3.22267,5.14545" fill="none" stroke-linecap="round"/><path d="M256.72096,182.73968c1.30482,0.77037 3.68855,2.09517 2.66569,5.41629c-1.32751,4.31028 -0.52053,3.15787 -3.94127,4.03671" fill="none" stroke-linecap="round"/><path d="M229.89567,192.10088c-3.22511,-1.59768 -2.62265,-0.18538 -3.20911,-5.15392c-0.45188,-3.82832 2.12015,-4.83733 3.53561,-5.43915" data-paper-data="{&quot;index&quot;:null}" fill="none" stroke-linecap="round"/><path d="M225.24475,192.8893c-3.37554,-1.24886 -2.62758,0.09208 -3.73445,-4.78698c-0.85286,-3.75937 1.59849,-5.03384 2.94264,-5.7815" data-paper-data="{&quot;index&quot;:null}" fill="none" stroke-linecap="round"/></g></g></svg>