<svg version="1.1" xmlns="http://www.w3.org/2000/svg" xmlns:xlink="http://www.w3.org/1999/xlink" width="220.94795" height="360.77775" viewBox="0,0,220.94795,360.77775"><g transform="translate(-129.52603,0.4817)"><g data-paper-data="{&quot;isPaintingLayer&quot;:true}" fill-rule="nonzero" stroke-width="2" stroke-linejoin="miter" stroke-miterlimit="10" stroke-dasharray="" stroke-dashoffset="0" style="mix-blend-mode: normal"><path d="M345.5692,289.45737c-11.58947,113.53304 -210.81743,84.15185 -214.93433,-55.56288c-5.07103,-172.09525 168.73403,-233.19054 168.73403,-233.19054c0,0 66.66916,88.2358 46.20029,288.75341z" fill="#a9a9a9" stroke="#ffffff" stroke-linecap="butt"/><path d="M304.37608,21.04536c0,5.55105 -3.90582,10.05107 -8.7239,10.05107c-4.81808,0 -8.7239,-4.50002 -8.7239,-10.05107c0,-5.55105 3.90582,-10.05107 8.7239,-10.05107c4.81808,0 8.7239,4.50002 8.7239,10.05107z" fill="#ffffff" stroke="#ffffff" stroke-linecap="butt"/><path d="M305.29131,195.58384c0,43.07821 -22.38576,78 -50,78c-27.61424,0 -50,-34.92179 -50,-78c0,-43.07821 22.38576,-78 50,-78c27.61423,0 50,34.92179 50,78z" fill="#a9a9a9" stroke="#b2b2b2" stroke-linecap="butt"/><path d="M219.14341,248.22033l1.6957,-105.15709" fill="none" stroke="#bdbdbd" stroke-linecap="round"/><path d="M242.78122,120.97209l-0.5647,147.76074" fill="none" stroke="#bdbdbd" stroke-linecap="round"/><path d="M270.74626,121.77011l-2.36462,144.916" fill="none" stroke="#bdbdbd" stroke-linecap="round"/><path d="M297.00269,238.64579l0.09324,-82.79891" fill="none" stroke="#bdbdbd" stroke-linecap="round"/></g></g></svg>